<svg width="250" height="200" viewBox="0 0 250 200" fill="none" xmlns="http://www.w3.org/2000/svg">
<g clip-path="url(#clip0_1_6)">
<path d="M235.296 119.697C228.947 113.338 222.267 107.327 215.127 101.809C200.883 90.8094 185.48 82.2218 168.844 76.9413C167.114 76.3749 166.176 74.5295 166.764 72.812L187.928 12.3698C190.044 6.32194 185.517 0.0182715 179.076 0.0182715H169.065C165.016 0.0182715 161.428 2.59456 160.176 6.4133L138.7 71.2406L134.817 82.9344L127.456 105.134C126.96 106.614 125.671 107.363 124.365 107.363C123.058 107.363 121.77 106.633 121.273 105.153L114.023 83.3729L110.434 72.5745L88.406 6.37676C87.1362 2.55801 83.5477 0 79.5175 0H69.7089C63.268 0 58.7409 6.32194 60.8573 12.3515L83.1429 76.0095C83.7317 77.6722 82.8668 79.4811 81.1922 80.1023C68.9544 84.5606 57.1583 90.4623 46.1903 97.241C31.4498 106.358 17.795 117.029 5.37326 129.033C3.84584 130.532 2.33682 132.03 0.883015 133.565C-0.313157 134.826 -0.294755 136.799 0.91982 138.023C18.8808 156.148 39.4182 172.684 62.2927 184.104C81.7627 193.824 99.0059 198.465 120.666 199.89L122.046 199.982C122.046 199.982 122.193 199.982 122.267 199.982H130.143C130.143 199.982 130.272 199.982 130.346 199.982L131.726 199.89C152.742 198.611 170.077 194.062 188.958 184.634C207.618 175.333 224.898 162.324 239.473 147.542C243.191 143.779 246.706 139.887 249.981 135.83V135.739C245.233 130.276 240.449 124.849 235.278 119.678L235.296 119.697ZM124.383 120.848C132.517 120.848 139.124 127.389 139.124 135.483C139.124 143.578 132.536 150.119 124.383 150.119C116.231 150.119 109.643 143.578 109.643 135.483C109.643 127.389 116.231 120.848 124.383 120.848ZM171.2 166.362C155.281 187.996 125.69 195.14 101.214 183.684C92.8227 179.755 85.5904 173.817 80.18 166.508C66.3412 147.817 66.5989 122.364 80.8057 103.947C83.4005 100.566 86.4001 97.4968 89.7126 94.8109L98.3066 119.331C95.3622 124.009 93.6508 129.545 93.6508 135.483C93.6508 152.33 107.416 165.997 124.402 165.997C141.387 165.997 155.152 152.33 155.152 135.483C155.152 129.545 153.441 124.027 150.497 119.331L159.606 93.2761C163.636 96.2543 167.225 99.7625 170.298 103.709C184.633 122.09 185.02 147.597 171.2 166.362Z" fill="white"/>
</g>
<defs>
<clipPath id="clip0_1_6">
<rect width="250" height="200" fill="white"/>
</clipPath>
</defs>
</svg>
